<svg xmlns="http://www.w3.org/2000/svg" viewBox="0 0 951.31 142.16"><defs><style>.cls-1{fill:#73563d;}.cls-2{fill:#ef4e23;}.cls-3{fill:#dd3f4c;}.cls-4{fill:#91c745;}.cls-5{fill:#24b24b;}.cls-6{fill:#4554a4;}.cls-7{fill:#da79b0;}.cls-8{fill:#f5dc1f;}.cls-9{fill:#730e20;}</style></defs><title>logo-color-2Asset 14</title><g id="Layer_2" data-name="Layer 2"><g id="Default"><path class="cls-1" d="M876.79,71.56c0-5.64-.2-15.62-.46-17.57-1.27-.25-5.31-.69-6.91-.87l-.26-1.32,6,.19c2.19,0,4.38.06,5.84.06,2.12,0,17.72,0,19.51-.44.2-.75.86,7.84.73,9.79L899.75,61c0-.44.07-3.27,0-4.52-1.2-1.82-11.42-2.64-14.93-2.64-.2.89-.47,13-.47,16.7v1.25c5.71,0,12.15-.44,13.74-1a14.33,14.33,0,0,0,.66-2.7l1.4-.12c-.2,1.13-1.4,9.72-1.73,11.73l-1.26-.5c.07-1.32.14-3,.14-4.21-2.07-1-7.24-1.38-12.95-1.38v1.26c0,3.83.27,17.51.47,19.33,6.63,0,12.87-.5,15.93-2.13.72-2.2,1.06-4.15,1.45-5.53l1.53-.37c-.46,1.82-3.58,11.42-3.65,10.41-1.92-.31-16.65-.56-20.84-.56-2.25,0-7.5.12-10.08.25l.33-1.32a55.77,55.77,0,0,0,6.84-.88c.26-1.13.46-12.67.46-19.58Z"/><path class="cls-1" d="M946.54,96.4c-.8-.44-13.94-.75-20-.75-2.85,0-12.21.19-18.11.37,3.32-3.32,29.93-38.09,32-41.73-4.51-.13-22.83.94-24.82,2.7-.66,1.63-2,6.21-2.39,7.28,0,0,2.26-13.37,2.33-12.43,1.39.25,15.13.57,16.79.57,1.39,0,14.86-.13,19-.32-3.65,4.33-28.2,36.22-31.72,41.29,8.23.32,24-.75,27.48-3.45C947.93,88.87,946.54,97.59,946.54,96.4Zm-31-44.56-2.33,12.43"/><path class="cls-1" d="M181.82,76.49a38.37,38.37,0,0,0-.23-4.69C181,70,166.73,49.94,163.28,46.89a40.53,40.53,0,0,0-5.25-1l-.3-1.49c1.27.14,6.22.28,13.06.28,4.27,0,9.3-.14,10.35-.28l-.37,1.49c-1.35.28-4.73.63-6.45,1,4.42,7.38,12.07,17.75,14.4,21.51,1.2-2.06,12.76-18.6,13-21.51-1.58-.36-4.88-.85-5.86-1l-.22-1.49c1.12.14,5.33.28,9.46.28,3.44,0,7.35-.14,9.07-.28l-.22,1.49c-1.13.21-3.53.57-5.11,1s-17.11,21.22-18.15,24.35a32.45,32.45,0,0,0-.31,5V79c0,1.92.08,11.43.38,13.2.9.22,5.85.79,7.28,1l.15,1.49c-1.58-.15-8.33-.29-13.44-.29-2.7,0-8.17.14-10.28.29l.38-1.49a64,64,0,0,0,6.6-1c.3-1.06.38-8.87.38-13.41Z"/><path class="cls-1" d="M219.79,71c0-5.65-.19-15.62-.46-17.57-1.26-.25-5.31-.69-6.9-.88l-.27-1.32c1.6.07,3.79.13,6,.2s4.39.06,5.85.06c2.12,0,17.72,0,19.51-.45.2-.75.86,7.85.72,9.8l-1.46-.44c0-.44.07-3.27,0-4.52-1.19-1.82-11.41-2.64-14.92-2.64-.2.88-.47,13-.47,16.7V71.2c5.71,0,12.14-.44,13.73-1a13.65,13.65,0,0,0,.67-2.7l1.4-.12c-.21,1.12-1.4,9.72-1.73,11.73l-1.26-.5c.06-1.32.13-3,.13-4.21-2.06-1-7.23-1.38-12.94-1.38v1.26c0,3.83.27,17.5.47,19.32,6.63,0,12.87-.5,15.92-2.13.73-2.2,1.06-4.14,1.46-5.52l1.53-.38c-.47,1.82-3.58,11.42-3.65,10.42-1.93-.31-16.66-.56-20.84-.56-2.26,0-7.5.12-10.09.25l.33-1.32a55.29,55.29,0,0,0,6.84-.88c.27-1.13.46-12.68.46-19.58Z"/><path class="cls-1" d="M261.29,68.75c0-3.58-.06-13.3-.33-15.31-1.46-.25-5.37-.75-7.1-.88l-.2-1.32c1.66.13,7.44.26,11.48.26,4.45,0,10.88-.13,12.21-.26L277,52.56c-1.59.13-5.18.63-7.83.88-.27,2-.33,11-.33,16.07v2.26c0,8.22.06,20.27.33,21.64,7.9,0,13.34-1.63,15.86-3.19a58.26,58.26,0,0,0,2.39-7.16l1.59-.25c-1.33,5.59-4.71,14.69-4.71,13-1.46-.12-15.79-.37-19.38-.37-3.32,0-9.42.12-11.28.25l.27-1.32a51.06,51.06,0,0,0,7-.88c.27-2.76.33-14.87.33-21.09Z"/><path class="cls-1" d="M307.17,73.59c0,8.16.06,18.64.33,19.89,1.66.38,5.64.75,7,.88l.33,1.32c-1.46-.13-8.37-.25-12.48-.25-2.25,0-8.36.12-10.35.25l.26-1.32c1.13-.06,5.65-.63,7-.88.27-2.64.33-14.25.33-20.4v-3.7c0-2.07-.06-13.8-.33-15.94-1.33-.25-5.71-.75-7-.88L292,51.24c1.26.13,7.36.26,12.61.26,3.38,0,9.09-.13,10.22-.26l-.33,1.32c-1.33.13-4.58.63-7,.88-.27,1.25-.33,8.54-.33,16.26Z"/><path class="cls-1" d="M338.17,69.51c0-4.65-.13-13.93-.33-15.38-10.62,0-15.39,1.57-17.19,2.64-.53,1.38-.13-6.53.07-5.21,1.06.19,12.47.63,21.43.63,9.62,0,21.11-.44,22.16-.63.27-.76-.86,6.59-.92,5.21-1.66-1.26-10.88-2.64-17.32-2.64-.2,1.7-.33,10.86-.33,15.38v2.82c0,5.53.13,16.13.33,21.15,1.26.19,7.3.75,8.56.88l.26,1.32c-1.59-.13-9.35-.25-13-.25-3,0-10.95.12-12.88.25l.33-1.32c1.53-.13,6.9-.69,8.5-.88.2-4.89.33-15.69.33-21.15Z"/><path class="cls-1" d="M403.82,96.51c-.8-.44-13.94-.76-20-.76-2.86,0-12.21.19-18.12.38C369,92.81,395.59,58,397.72,54.4c-4.52-.13-22.83.94-24.82,2.69-.67,1.64-2,6.22-2.4,7.28,0,0,2.26-13.36,2.33-12.42,1.4.25,15.13.57,16.79.57,1.39,0,14.86-.13,19-.32-3.65,4.33-28.21,36.21-31.72,41.29,8.23.32,24-.75,27.47-3.45C405.21,89,403.82,97.7,403.82,96.51ZM372.83,52,370.5,64.37"/><path class="cls-1" d="M440.41,94.69a54,54,0,0,0,6.7-.88c-1.19-3.27-5.91-16.57-7-18.39-2.32,0-12.87.44-15.33.82-.39.88-4,12.73-4.64,17.57a40.12,40.12,0,0,0,5.71.88l.26,1.31c-2.06-.12-8.1-.25-10-.25-1.73,0-6.17.13-7.7.25l.2-1.31a55.87,55.87,0,0,0,5.71-.88c2.39-4,15.59-37.72,16.52-40.1a45.15,45.15,0,0,0-5.24-.82l-.06-1.32c2,.13,7.49.25,8.62.25,2.79,0,9.42-.12,11.35-.25l-.2,1.32a39.3,39.3,0,0,0-5,.82c.79,2.76,4.44,12.61,7,19.2,1.86,4.83,6,15.38,9,20.9,1.92.37,3.85.62,5.84.88L462.3,96c-.79-.12-7.49-.25-11-.25-1.92,0-9.42.13-11.21.25Zm-7.5-39.92h-.13c-2.06,5.59-6.37,16.44-7,18.51l13.94.26C438.22,69.39,434,58.23,432.91,54.77Z"/><path class="cls-1" d="M507.16,64.42c0-2.55-.08-16.18-.38-17.53-1.27-.28-6.38-.71-8-.85l-.22-1.49,16.21-.07c7.13,0,16.06.07,21.16,2,4,1.49,6.46,4.18,6.46,8.09,0,4.47-4.81,10.36-10.59,13.41.83,1.77,12.91,20.37,20.72,28.18l-3.31.5c-5.25-2.28-25.21-24.06-26.41-25.56-2.85.21-5.93.43-7.21.43v1.84c0,4.62.15,15.55.38,18.81,1.27.36,6.23.85,7.88,1l.3,1.49c-1.88-.15-9.46-.29-12.91-.29-3.08,0-11,.14-12.68.29l.3-1.49a71.69,71.69,0,0,0,7.95-1c.3-2.06.38-16,.38-23.42Zm8.4,4.9A27.54,27.54,0,0,0,524.72,68c3.23-1.13,8.56-4.4,8.56-11.43,0-4.54-4.36-10.07-17.34-10.07-.23,2.91-.38,15.61-.38,20.65Z"/><path class="cls-1" d="M563.14,89.72a19.27,19.27,0,0,1-6.37-15.19c0-12.42,10.82-23.72,29.14-23.72,7,0,12.6,1.07,18.38,5.08a19.11,19.11,0,0,1,8,15.56c0,15.38-12.35,25.29-28.67,25.29C577,96.74,569.31,95.68,563.14,89.72ZM604.22,76c0-13.31-9.75-22.85-20.77-22.85-9.09,0-19,5.78-19,18.7A22.74,22.74,0,0,0,586.9,94.17C596.39,94.17,604.22,86.08,604.22,76Z"/><path class="cls-1" d="M624.69,69.32c0-2.82-.13-14.31-.46-15.56-1.73-.32-5.45-.76-7-.88l-.13-1.32c1,.13,8.16.25,11,.25,2.32,0,10.22-.25,15.33-.25,7.76,0,14.33.88,18.71,2.89,7.77,3.51,10.89,9.48,10.89,15.18,0,13.24-11,26.24-36.5,26.24-3.72,0-17.79.06-19.38.12l.27-1.32a48,48,0,0,0,6.9-.87c.33-1.07.46-12.24.46-19.52Zm7.57,5.52c0,3.39.2,15.19.46,17.45A20.48,20.48,0,0,0,640,93.42c12.68,0,24.82-7,24.82-20.4,0-5.33-1.72-10.6-7.23-14.49-4.84-3.39-12.81-4.65-19-4.65a44.3,44.3,0,0,0-5.84.38c-.2.94-.46,15.37-.46,18.13Z"/><path class="cls-1" d="M685.91,69.26c0-2.26-.07-14.31-.33-15.5-1.13-.25-5.64-.63-7.1-.76l-.2-1.31,14.33-.06c6.31,0,14.2.06,18.72,1.75,3.51,1.32,5.7,3.7,5.7,7.16,0,3.95-4.24,9.16-9.35,11.85.72,1.57,11.41,18,18.31,24.92l-2.92.44c-4.64-2-22.3-21.27-23.36-22.59-2.52.18-5.24.37-6.37.37v1.63c0,4.08.14,13.75.33,16.64,1.13.31,5.51.75,7,.87l.27,1.32c-1.66-.12-8.37-.25-11.42-.25-2.72,0-9.69.13-11.21.25l.26-1.32a63.14,63.14,0,0,0,7-.87c.26-1.82.33-14.12.33-20.71Zm7.43,4.33a24.09,24.09,0,0,0,8.1-1.2c2.85-1,7.57-3.89,7.57-10.1,0-4-3.86-8.91-15.34-8.91-.19,2.57-.33,13.81-.33,18.26Z"/><path class="cls-1" d="M742.41,73.9c0,8.16.07,18.64.33,19.9,1.66.37,5.64.75,7,.87L750,96c-1.46-.12-8.36-.25-12.47-.25-2.26,0-8.37.13-10.36.25l.27-1.32c1.13-.06,5.64-.62,7-.87.27-2.64.33-14.25.33-20.4V69.7c0-2.07-.06-13.81-.33-15.94-1.33-.25-5.7-.76-7-.88l-.33-1.32c1.27.13,7.37.25,12.61.25,3.39,0,9.09-.12,10.22-.25l-.33,1.32c-1.33.12-4.58.63-7,.88-.26,1.25-.33,8.53-.33,16.25Z"/><path class="cls-1" d="M802.81,87.27c0,2.32,0,5.65.13,7.4a85.59,85.59,0,0,1-17,2.07c-4.31,0-12-.37-17.58-3-8.37-4-13.21-11-13.21-18.89a22,22,0,0,1,10.49-19c6-3.89,12.74-5.08,19.51-5.08,5.7,0,12.67.82,14.86,1.57.27-1,1-4.52,1.2-5.84l1.52-.31a162.16,162.16,0,0,0-.93,19.39l-1.52-.76a54.8,54.8,0,0,0-.73-5.77C797.83,57.15,793.12,53,782.3,53c-11.54,0-19.24,8.1-19.24,18.14,0,10.23,9.22,23.35,23.56,23.35A21.06,21.06,0,0,0,795,92.85a59.51,59.51,0,0,0,.2-6.21V83.32a35.7,35.7,0,0,0-.26-5c-1.33-.13-5.44-.44-6.71-.7l-.39-1.31c3.45.12,8.56.19,10.88.19,3.18,0,9.62-.07,10.42-.19l-.33,1.31c-.6.06-4.32.38-5.78.7-.19,1.06-.26,5.2-.26,7Z"/><path class="cls-1" d="M819.43,67.94c0-5.65-.13-12.43-.33-14.18-1.39-.32-3.45-.63-5.24-.88l-.2-1.32c1.86.13,6.1.25,11.21.25,3.06,0,8.17-.12,9.83-.25l-.34,1.32c-1.79.18-4.77.5-6.9.88-.2,1.06-.33,9-.33,14.43v8.35c0,13.3,6,17.82,13.14,17.82,4.38,0,7.3-1,9.55-3,3.59-3.2,4.45-8.73,4.45-16.26V69.32c0-2-.06-13.49-.33-15.56-1.53-.25-5.51-.76-7.23-.88l-.47-1.32c1.66.13,6.64.25,10.75.25,3.45,0,7-.12,8.1-.25l-.4,1.32c-1.13.25-2.92.5-4.65.88-.2.94-.33,8.78-.33,10.48v3c0,2.45.13,5.46.13,7.72,0,7.09-1.39,13.11-6.5,17.38-3.05,2.57-7.3,4.39-13.87,4.39-13.73,0-20-8-20-19Z"/><path class="cls-2" d="M50.13,71C35.22,82.77,19.77,90.65,0,85.39c7.24-9.55,7.86-19.91.37-30.46C20.17,50.42,35.29,58.78,50.13,71Z"/><path class="cls-3" d="M92.78,71.83c14.88-12,30.21-19.45,50.34-14.24-8.08,9.52-9.27,19.81-.36,30.18C122.62,92.4,107.39,84.67,92.78,71.83Z"/><path class="cls-4" d="M86.59,86.79c18.8,2.12,34.47,8.08,44.66,24.82-11.87,2.29-20,8.8-21.38,21.66C93.05,122.31,87.26,106.36,86.59,86.79Z"/><path class="cls-5" d="M56.47,56C37.2,54.08,21.1,48.2,10.77,31.23c12-2.09,20.07-8.41,21.91-21C49.61,20.77,54.83,36.84,56.47,56Z"/><path class="cls-6" d="M30.4,131.93C29.23,118.11,20.91,112,9.27,109.35c11.17-16.8,27.63-21.72,46.24-23C54.55,106.55,49,116.67,30.4,131.93Z"/><path class="cls-7" d="M55,142.16c-3.87-19.54,2.5-35.25,16.14-49.39,11.14,14.5,19.17,29.39,13.8,49C75,136.13,64.77,134,55,142.16Z"/><path class="cls-8" d="M57.51,0c9.93,8.5,20,7.21,30.16,1.35,2.8,20-.25,29.54-15.53,48.58C58.61,35.94,53.19,19.83,57.51,0Z"/><ellipse class="cls-9" cx="71.81" cy="71.16" rx="15.82" ry="15.91" transform="translate(-0.65 141.66) rotate(-88.95)"/><path class="cls-9" d="M117.12,46.16c-2.18,1.8-4.34,3.61-6.54,5.39-3.8,3.08-7.63,6.16-12.81,7.36a11.38,11.38,0,0,1-4.39,0c-2.9-.53-3.84-2-2.58-4.36,1.41-2.68,1-5.21.18-7.76-2.74-8.63,1.85-13.29,12.33-12.45.23,0,.46,0,1-.36-.41-.19-.83-.37-1.23-.57-3.73-1.81-5.27-4-3.63-7.5,2.41-5.11,1.93-10.11,1.43-15.25a14.09,14.09,0,0,1,.7-3.92,21.32,21.32,0,0,1,4.36.88c9.23,4.07,14.76,10.76,17.36,19.29a94.32,94.32,0,0,1,2,10.18c.12.63.24,1.27.36,1.94,3.15-1,4.81-2.6,5.14-5.4s2-4.46,4.36-4.79c-3.53,3.58-3.53,3.58-3.57,5.7l6-4.88.7.59a7.51,7.51,0,0,1-1.45,1.14c-3.72,1.71-4.89,4.79-6.16,7.89-.3.73-1.31,1.29-2.08,1.84-.25.17-.9-.07-1.13.11-2.47,1.92-5.18,3.7-7.2,5.93-1,1.14-.9,3.1-1.14,4.71-.19,1.21,0,2.46-.25,3.66-.12.62-.79,1.17-1.21,1.75-.65-.4-1.53-.69-1.91-1.24-1.44-2.09-1-4.3,0-6.46.54-1.06,1.19-2.08,1.79-3.11Zm-7.88-7.38-.45.54,6,2.77.36-.55Z"/></g></g></svg>